# xmcd
#
# Track frame offsets: 
#        150
#        15388
#        29227
#        47267
#        60287
#        73669
#        89202
#        101876
#        114782
#        131276
#        145287
#        157405
#        171768
#        183689
#        200159
#        215370
#        229179
#        242043
#        258924
#        273764
#
# Disc length: 3855 seconds
#
# Revision: 4
# Processed by: cddbd v1.5.2PL0 Copyright (c) Steve Scherf et al.
# Submitted via: ExactAudioCopyFreeDBPlugin 1.0
#
DISCID=250f0d14
DTITLE=Various Artist - The World Of Square Dance [CD 1)
DYEAR=1998
DGENRE=Country
TTITLE0=Achy Breaky Heart
TTITLE1=Boot Scootin' Boogie
TTITLE2=All My Rowdy Friends
TTITLE3=Cadillac Ranch
TTITLE4=Super Love
TTITLE5=One Step Forward
TTITLE6=Dumas Walker
TTITLE7=Love's Got A Hold On You
TTITLE8=I Feel Lucky
TTITLE9=Honky Tonk Blues
TTITLE10=Hillbilly Rock
TTITLE11=Get Into Reggae Country
TTITLE12=The Guld Of Mexico
TTITLE13=No One Lese On Earth
TTITLE14=It's Such A Small World
TTITLE15=Guitars, Cadillac
TTITLE16=I'm Over You
TTITLE17=Bop
TTITLE18=You Can't Keep A Good Man Down
TTITLE19=Watch Me
EXTD=
EXTT0=Van Tress
EXTT1=Dunn
EXTT2=Hank Williams Jr.
EXTT3=Springsteen
EXTT4=Lemaire - Pennington
EXTT5=Hillman - Wildes
EXTT6=The Kentucky Headhunters
EXTT7=Stegall - Chamberlain
EXTT8=Mary Chapin Carpenter - Schultz
EXTT9=Hank Williams Jr.
EXTT10=Kennerley
EXTT11=Bellamy
EXTT12=Black - Nicholls
EXTT13=Lorber - Harris - Colocci
EXTT14=Crowell
EXTT15=Yoakam
EXTT16=Nicholas - Turner
EXTT17=Davis - Kimball
EXTT18=Corbin
EXTT19=Shapiro - Burr
PLAYORDER=
